<?xml version="1.0" encoding="UTF-8"?>
<svg width="100px" height="100px" viewBox="0 0 100 100" version="1.1" xmlns="http://www.w3.org/2000/svg" xmlns:xlink="http://www.w3.org/1999/xlink">
    <!-- Generator: Sketch 52.5 (67469) - http://www.bohemiancoding.com/sketch -->
    <title>Group 3</title>
    <desc>Created with Sketch.</desc>
    <g id="Page-1" stroke="none" stroke-width="1" fill="none" fill-rule="evenodd">
        <g id="Time" transform="translate(-265.000000, -6581.000000)" fill="#21272D">
            <g id="Group-8" transform="translate(190.000000, 6541.000000)">
                <g id="Group-3" transform="translate(75.000000, 40.000000)">
                    <path d="M16.6666667,54.1666667 C22.4083333,54.1666667 27.0833333,49.4916667 27.0833333,43.75 C27.0833333,38.0083333 22.4083333,33.3333333 16.6666667,33.3333333 C10.925,33.3333333 6.25,38.0083333 6.25,43.75 C6.25,49.4916667 10.925,54.1666667 16.6666667,54.1666667" id="Fill-3142"></path>
                    <path d="M31.25,58.3333333 L2.08333333,58.3333333 C0.933333333,58.3333333 3.01980663e-13,59.2666667 3.01980663e-13,60.4166667 C3.01980663e-13,70.3708333 0.666666667,79.5333333 8.33333333,82.5541667 L8.33333333,97.9166667 C8.33333333,99.0666667 9.26666667,100 10.4166667,100 L22.9166667,100 C24.0666667,100 25,99.0666667 25,97.9166667 L25,82.5541667 C32.6666667,79.5333333 33.3333333,70.3708333 33.3333333,60.4166667 C33.3333333,59.2666667 32.4,58.3333333 31.25,58.3333333" id="Fill-3143"></path>
                    <path d="M83.3333333,54.1666667 C89.075,54.1666667 93.75,49.4916667 93.75,43.75 C93.75,38.0083333 89.075,33.3333333 83.3333333,33.3333333 C77.5916667,33.3333333 72.9166667,38.0083333 72.9166667,43.75 C72.9166667,49.4916667 77.5916667,54.1666667 83.3333333,54.1666667" id="Fill-3144"></path>
                    <path d="M97.9166667,58.3333333 L68.75,58.3333333 C67.6,58.3333333 66.6666667,59.2666667 66.6666667,60.4166667 C66.6666667,70.3708333 67.3333333,79.5333333 75,82.5541667 L75,97.9166667 C75,99.0666667 75.9333333,100 77.0833333,100 L89.5833333,100 C90.7333333,100 91.6666667,99.0666667 91.6666667,97.9166667 L91.6666667,82.5541667 C99.3333333,79.5333333 100,70.3708333 100,60.4166667 C100,59.2666667 99.0666667,58.3333333 97.9166667,58.3333333" id="Fill-3145"></path>
                    <path d="M50,20.8333333 C55.7416667,20.8333333 60.4166667,16.1583333 60.4166667,10.4166667 C60.4166667,4.675 55.7416667,3.01980663e-13 50,3.01980663e-13 C44.2583333,3.01980663e-13 39.5833333,4.675 39.5833333,10.4166667 C39.5833333,16.1583333 44.2583333,20.8333333 50,20.8333333" id="Fill-3146"></path>
                    <path d="M64.5833333,25 L35.4166667,25 C34.2666667,25 33.3333333,25.9333333 33.3333333,27.0833333 C33.3333333,37.0375 34,46.2 41.6666667,49.2208333 L41.6666667,64.5833333 C41.6666667,65.7333333 42.6,66.6666667 43.75,66.6666667 L56.25,66.6666667 C57.4,66.6666667 58.3333333,65.7333333 58.3333333,64.5833333 L58.3333333,49.2208333 C66,46.2 66.6666667,37.0375 66.6666667,27.0833333 C66.6666667,25.9333333 65.7333333,25 64.5833333,25" id="Fill-3147"></path>
                </g>
            </g>
        </g>
    </g>
</svg>