<?xml version="1.0" encoding="UTF-8"?>
<svg width="98px" height="100px" viewBox="0 0 98 100" version="1.1" xmlns="http://www.w3.org/2000/svg" xmlns:xlink="http://www.w3.org/1999/xlink">
    <!-- Generator: Sketch 52.5 (67469) - http://www.bohemiancoding.com/sketch -->
    <title>Group 340</title>
    <desc>Created with Sketch.</desc>
    <g id="Page-1" stroke="none" stroke-width="1" fill="none" fill-rule="evenodd">
        <g id="Time" transform="translate(-266.000000, -6113.000000)" fill="#21272D">
            <g id="Group-6" transform="translate(190.000000, 6073.000000)">
                <g id="Group-340" transform="translate(76.000000, 40.000000)">
                    <path d="M25.0833333,0 C15.8916667,0 8.41666667,7.47916667 8.41666667,16.6666667 C8.41666667,25.8541667 15.8916667,33.3333333 25.0833333,33.3333333 C34.275,33.3333333 41.75,25.8541667 41.75,16.6666667 C41.75,7.47916667 34.275,0 25.0833333,0" id="Fill-3846"></path>
                    <path d="M48,37.5 L29.0833333,37.5 L31.4083333,65.3708333 L25.0833333,71.6958333 L18.7583333,65.3708333 L21.0833333,37.5 L2.16666667,37.5 C1.01666667,37.5 0.0833333333,38.4333333 0.0833333333,39.5833333 C0.0833333333,54.3916667 5.38333333,66.1208333 14.6666667,72.0125 L14.6666667,97.9166667 C14.6666667,99.0666667 15.6,100 16.75,100 L33.4166667,100 C34.5666667,100 35.5,99.0666667 35.5,97.9166667 L35.5,72.0125 C44.7833333,66.1208333 50.0833333,54.3875 50.0833333,39.5833333 C50.0833333,38.4333333 49.15,37.5 48,37.5" id="Fill-3847"></path>
                    <path d="M83.4166667,29.1666667 L75.0833333,29.1666667 C73.9333333,29.1666667 73,28.2333333 73,27.0833333 L73,12.5 C73,11.35 73.9333333,10.4166667 75.0833333,10.4166667 C76.2333333,10.4166667 77.1666667,11.35 77.1666667,12.5 L77.1666667,25 L83.4166667,25 C84.5666667,25 85.5,25.9333333 85.5,27.0833333 C85.5,28.2333333 84.5666667,29.1666667 83.4166667,29.1666667 M75.0833333,0 C62.4458333,0 52.1666667,10.2833333 52.1666667,22.9166667 C52.1666667,35.55 62.4458333,45.8333333 75.0833333,45.8333333 C87.7208333,45.8333333 98,35.55 98,22.9166667 C98,10.2833333 87.7208333,0 75.0833333,0" id="Fill-3848"></path>
                </g>
            </g>
        </g>
    </g>
</svg>