<?xml version="1.0" encoding="UTF-8"?>
<svg width="100px" height="100px" viewBox="0 0 100 100" version="1.1" xmlns="http://www.w3.org/2000/svg" xmlns:xlink="http://www.w3.org/1999/xlink">
    <!-- Generator: Sketch 52.5 (67469) - http://www.bohemiancoding.com/sketch -->
    <title>Group 5</title>
    <desc>Created with Sketch.</desc>
    <g id="Page-1" stroke="none" stroke-width="1" fill="none" fill-rule="evenodd">
        <g id="Time" transform="translate(-265.000000, -7283.000000)" fill="#21272D">
            <g id="Group-11" transform="translate(190.000000, 7243.000000)">
                <g id="Group-5" transform="translate(75.000000, 40.000000)">
                    <path d="M85.4166667,45.8333333 L14.5833333,45.8333333 C12.2791667,45.8333333 10.4166667,47.6958333 10.4166667,50 C10.4166667,52.3041667 12.2791667,54.1666667 14.5833333,54.1666667 L85.4166667,54.1666667 C87.7208333,54.1666667 89.5833333,52.3041667 89.5833333,50 C89.5833333,47.6958333 87.7208333,45.8333333 85.4166667,45.8333333" id="Fill-2323"></path>
                    <path d="M4.16666667,3.02868841e-13 C1.86666667,3.02868841e-13 3.02868841e-13,1.86666667 3.02868841e-13,4.16666667 C3.02868841e-13,6.46666667 1.86666667,8.33333333 4.16666667,8.33333333 C6.46666667,8.33333333 8.33333333,6.46666667 8.33333333,4.16666667 C8.33333333,1.86666667 6.46666667,3.02868841e-13 4.16666667,3.02868841e-13" id="Fill-2324"></path>
                    <path d="M4.16666667,13.0941667 C1.86666667,13.0941667 3.02868841e-13,14.9608333 3.02868841e-13,17.2608333 C3.02868841e-13,19.5608333 1.86666667,21.4275 4.16666667,21.4275 C6.46666667,21.4275 8.33333333,19.5608333 8.33333333,17.2608333 C8.33333333,14.9608333 6.46666667,13.0941667 4.16666667,13.0941667" id="Fill-2325"></path>
                    <path d="M4.16666667,26.1920833 C1.86666667,26.1920833 3.02868841e-13,28.05875 3.02868841e-13,30.35875 C3.02868841e-13,32.65875 1.86666667,34.5254167 4.16666667,34.5254167 C6.46666667,34.5254167 8.33333333,32.65875 8.33333333,30.35875 C8.33333333,28.05875 6.46666667,26.1920833 4.16666667,26.1920833" id="Fill-2326"></path>
                    <path d="M4.16666667,39.28625 C1.86666667,39.28625 3.02868841e-13,41.1529167 3.02868841e-13,43.4529167 C3.02868841e-13,45.7529167 1.86666667,47.6195833 4.16666667,47.6195833 C6.46666667,47.6195833 8.33333333,45.7529167 8.33333333,43.4529167 C8.33333333,41.1529167 6.46666667,39.28625 4.16666667,39.28625" id="Fill-2327"></path>
                    <path d="M4.16666667,52.3804167 C1.86666667,52.3804167 3.02868841e-13,54.2470833 3.02868841e-13,56.5470833 C3.02868841e-13,58.8470833 1.86666667,60.71375 4.16666667,60.71375 C6.46666667,60.71375 8.33333333,58.8470833 8.33333333,56.5470833 C8.33333333,54.2470833 6.46666667,52.3804167 4.16666667,52.3804167" id="Fill-2328"></path>
                    <path d="M4.16666667,65.4745833 C1.86666667,65.4745833 3.02868841e-13,67.34125 3.02868841e-13,69.64125 C3.02868841e-13,71.94125 1.86666667,73.8079167 4.16666667,73.8079167 C6.46666667,73.8079167 8.33333333,71.94125 8.33333333,69.64125 C8.33333333,67.34125 6.46666667,65.4745833 4.16666667,65.4745833" id="Fill-2329"></path>
                    <path d="M4.16666667,78.5725 C1.86666667,78.5725 3.02868841e-13,80.4391667 3.02868841e-13,82.7391667 C3.02868841e-13,85.0391667 1.86666667,86.9058333 4.16666667,86.9058333 C6.46666667,86.9058333 8.33333333,85.0391667 8.33333333,82.7391667 C8.33333333,80.4391667 6.46666667,78.5725 4.16666667,78.5725" id="Fill-2330"></path>
                    <path d="M95.8333333,13.0941667 C93.5333333,13.0941667 91.6666667,14.9608333 91.6666667,17.2608333 C91.6666667,19.5608333 93.5333333,21.4275 95.8333333,21.4275 C98.1333333,21.4275 100,19.5608333 100,17.2608333 C100,14.9608333 98.1333333,13.0941667 95.8333333,13.0941667" id="Fill-2331"></path>
                    <path d="M95.8333333,26.1920833 C93.5333333,26.1920833 91.6666667,28.05875 91.6666667,30.35875 C91.6666667,32.65875 93.5333333,34.5254167 95.8333333,34.5254167 C98.1333333,34.5254167 100,32.65875 100,30.35875 C100,28.05875 98.1333333,26.1920833 95.8333333,26.1920833" id="Fill-2332"></path>
                    <path d="M95.8333333,39.28625 C93.5333333,39.28625 91.6666667,41.1529167 91.6666667,43.4529167 C91.6666667,45.7529167 93.5333333,47.6195833 95.8333333,47.6195833 C98.1333333,47.6195833 100,45.7529167 100,43.4529167 C100,41.1529167 98.1333333,39.28625 95.8333333,39.28625" id="Fill-2333"></path>
                    <path d="M95.8333333,52.3804167 C93.5333333,52.3804167 91.6666667,54.2470833 91.6666667,56.5470833 C91.6666667,58.8470833 93.5333333,60.71375 95.8333333,60.71375 C98.1333333,60.71375 100,58.8470833 100,56.5470833 C100,54.2470833 98.1333333,52.3804167 95.8333333,52.3804167" id="Fill-2334"></path>
                    <path d="M95.8333333,65.4745833 C93.5333333,65.4745833 91.6666667,67.34125 91.6666667,69.64125 C91.6666667,71.94125 93.5333333,73.8079167 95.8333333,73.8079167 C98.1333333,73.8079167 100,71.94125 100,69.64125 C100,67.34125 98.1333333,65.4745833 95.8333333,65.4745833" id="Fill-2335"></path>
                    <path d="M95.8333333,78.5725 C93.5333333,78.5725 91.6666667,80.4391667 91.6666667,82.7391667 C91.6666667,85.0391667 93.5333333,86.9058333 95.8333333,86.9058333 C98.1333333,86.9058333 100,85.0391667 100,82.7391667 C100,80.4391667 98.1333333,78.5725 95.8333333,78.5725" id="Fill-2336"></path>
                    <path d="M45.8333333,13.39125 C45.8333333,15.69125 47.7,17.5579167 50,17.5579167 C52.3,17.5579167 54.1666667,15.69125 54.1666667,13.39125 C54.1666667,11.09125 52.3,9.22458333 50,9.22458333 C47.7,9.22458333 45.8333333,11.09125 45.8333333,13.39125" id="Fill-2337"></path>
                    <path d="M50,22.3225 C47.7,22.3225 45.8333333,24.1891667 45.8333333,26.4891667 C45.8333333,28.7891667 47.7,30.6558333 50,30.6558333 C52.3,30.6558333 54.1666667,28.7891667 54.1666667,26.4891667 C54.1666667,24.1891667 52.3,22.3225 50,22.3225" id="Fill-2338"></path>
                    <path d="M50,35.4166667 C47.7,35.4166667 45.8333333,37.2833333 45.8333333,39.5833333 C45.8333333,41.8833333 47.7,43.75 50,43.75 C52.3,43.75 54.1666667,41.8833333 54.1666667,39.5833333 C54.1666667,37.2833333 52.3,35.4166667 50,35.4166667" id="Fill-2339"></path>
                    <path d="M50,64.5833333 C52.3,64.5833333 54.1666667,62.7166667 54.1666667,60.4166667 C54.1666667,58.1166667 52.3,56.25 50,56.25 C47.7,56.25 45.8333333,58.1166667 45.8333333,60.4166667 C45.8333333,62.7166667 47.7,64.5833333 50,64.5833333" id="Fill-2340"></path>
                    <path d="M50,77.6775 C52.3,77.6775 54.1666667,75.8108333 54.1666667,73.5108333 C54.1666667,71.2108333 52.3,69.3441667 50,69.3441667 C47.7,69.3441667 45.8333333,71.2108333 45.8333333,73.5108333 C45.8333333,75.8108333 47.7,77.6775 50,77.6775" id="Fill-2341"></path>
                    <path d="M54.1666667,86.60875 C54.1666667,84.30875 52.3,82.4420833 50,82.4420833 C47.7,82.4420833 45.8333333,84.30875 45.8333333,86.60875 C45.8333333,88.90875 47.7,90.7754167 50,90.7754167 C52.3,90.7754167 54.1666667,88.90875 54.1666667,86.60875" id="Fill-2342"></path>
                    <path d="M4.16666667,91.6666667 C1.86666667,91.6666667 3.02868841e-13,93.5333333 3.02868841e-13,95.8333333 C3.02868841e-13,98.1333333 1.86666667,100 4.16666667,100 C6.46666667,100 8.33333333,98.1333333 8.33333333,95.8333333 C8.33333333,93.5333333 6.46666667,91.6666667 4.16666667,91.6666667" id="Fill-2343"></path>
                    <path d="M17.2608333,8.33333333 C19.5608333,8.33333333 21.4275,6.46666667 21.4275,4.16666667 C21.4275,1.86666667 19.5608333,3.02868841e-13 17.2608333,3.02868841e-13 C14.9608333,3.02868841e-13 13.0941667,1.86666667 13.0941667,4.16666667 C13.0941667,6.46666667 14.9608333,8.33333333 17.2608333,8.33333333" id="Fill-2344"></path>
                    <path d="M30.35875,8.33333333 C32.65875,8.33333333 34.5254167,6.46666667 34.5254167,4.16666667 C34.5254167,1.86666667 32.65875,3.02868841e-13 30.35875,3.02868841e-13 C28.05875,3.02868841e-13 26.1920833,1.86666667 26.1920833,4.16666667 C26.1920833,6.46666667 28.05875,8.33333333 30.35875,8.33333333" id="Fill-2345"></path>
                    <path d="M43.4529167,8.33333333 C45.7529167,8.33333333 47.6195833,6.46666667 47.6195833,4.16666667 C47.6195833,1.86666667 45.7529167,3.02868841e-13 43.4529167,3.02868841e-13 C41.1529167,3.02868841e-13 39.28625,1.86666667 39.28625,4.16666667 C39.28625,6.46666667 41.1529167,8.33333333 43.4529167,8.33333333" id="Fill-2346"></path>
                    <path d="M56.5470833,8.33333333 C58.8470833,8.33333333 60.71375,6.46666667 60.71375,4.16666667 C60.71375,1.86666667 58.8470833,3.02868841e-13 56.5470833,3.02868841e-13 C54.2470833,3.02868841e-13 52.3804167,1.86666667 52.3804167,4.16666667 C52.3804167,6.46666667 54.2470833,8.33333333 56.5470833,8.33333333" id="Fill-2347"></path>
                    <path d="M69.64125,8.33333333 C71.94125,8.33333333 73.8079167,6.46666667 73.8079167,4.16666667 C73.8079167,1.86666667 71.94125,3.02868841e-13 69.64125,3.02868841e-13 C67.34125,3.02868841e-13 65.4745833,1.86666667 65.4745833,4.16666667 C65.4745833,6.46666667 67.34125,8.33333333 69.64125,8.33333333" id="Fill-2348"></path>
                    <path d="M82.7391667,8.33333333 C85.0391667,8.33333333 86.9058333,6.46666667 86.9058333,4.16666667 C86.9058333,1.86666667 85.0391667,3.02868841e-13 82.7391667,3.02868841e-13 C80.4391667,3.02868841e-13 78.5725,1.86666667 78.5725,4.16666667 C78.5725,6.46666667 80.4391667,8.33333333 82.7391667,8.33333333" id="Fill-2349"></path>
                    <path d="M95.8333333,8.33333333 C98.1333333,8.33333333 100,6.46666667 100,4.16666667 C100,1.86666667 98.1333333,3.02868841e-13 95.8333333,3.02868841e-13 C93.5333333,3.02868841e-13 91.6666667,1.86666667 91.6666667,4.16666667 C91.6666667,6.46666667 93.5333333,8.33333333 95.8333333,8.33333333" id="Fill-2350"></path>
                    <path d="M17.2608333,91.6666667 C14.9608333,91.6666667 13.0941667,93.5333333 13.0941667,95.8333333 C13.0941667,98.1333333 14.9608333,100 17.2608333,100 C19.5608333,100 21.4275,98.1333333 21.4275,95.8333333 C21.4275,93.5333333 19.5608333,91.6666667 17.2608333,91.6666667" id="Fill-2351"></path>
                    <path d="M30.35875,91.6666667 C28.05875,91.6666667 26.1920833,93.5333333 26.1920833,95.8333333 C26.1920833,98.1333333 28.05875,100 30.35875,100 C32.65875,100 34.5254167,98.1333333 34.5254167,95.8333333 C34.5254167,93.5333333 32.65875,91.6666667 30.35875,91.6666667" id="Fill-2352"></path>
                    <path d="M43.4529167,91.6666667 C41.1529167,91.6666667 39.28625,93.5333333 39.28625,95.8333333 C39.28625,98.1333333 41.1529167,100 43.4529167,100 C45.7529167,100 47.6195833,98.1333333 47.6195833,95.8333333 C47.6195833,93.5333333 45.7529167,91.6666667 43.4529167,91.6666667" id="Fill-2353"></path>
                    <path d="M56.5470833,91.6666667 C54.2470833,91.6666667 52.3804167,93.5333333 52.3804167,95.8333333 C52.3804167,98.1333333 54.2470833,100 56.5470833,100 C58.8470833,100 60.71375,98.1333333 60.71375,95.8333333 C60.71375,93.5333333 58.8470833,91.6666667 56.5470833,91.6666667" id="Fill-2354"></path>
                    <path d="M69.64125,91.6666667 C67.34125,91.6666667 65.4745833,93.5333333 65.4745833,95.8333333 C65.4745833,98.1333333 67.34125,100 69.64125,100 C71.94125,100 73.8079167,98.1333333 73.8079167,95.8333333 C73.8079167,93.5333333 71.94125,91.6666667 69.64125,91.6666667" id="Fill-2355"></path>
                    <path d="M82.7391667,91.6666667 C80.4391667,91.6666667 78.5725,93.5333333 78.5725,95.8333333 C78.5725,98.1333333 80.4391667,100 82.7391667,100 C85.0391667,100 86.9058333,98.1333333 86.9058333,95.8333333 C86.9058333,93.5333333 85.0391667,91.6666667 82.7391667,91.6666667" id="Fill-2356"></path>
                    <path d="M95.8333333,91.6666667 C93.5333333,91.6666667 91.6666667,93.5333333 91.6666667,95.8333333 C91.6666667,98.1333333 93.5333333,100 95.8333333,100 C98.1333333,100 100,98.1333333 100,95.8333333 C100,93.5333333 98.1333333,91.6666667 95.8333333,91.6666667" id="Fill-2357"></path>
                </g>
            </g>
        </g>
    </g>
</svg>