<?xml version="1.0" encoding="UTF-8"?>
<svg width="90px" height="90px" viewBox="0 0 90 90" version="1.1" xmlns="http://www.w3.org/2000/svg" xmlns:xlink="http://www.w3.org/1999/xlink">
    <!-- Generator: Sketch 52.5 (67469) - http://www.bohemiancoding.com/sketch -->
    <title>Shape 2</title>
    <desc>Created with Sketch.</desc>
    <g id="Page-1" stroke="none" stroke-width="1" fill="none" fill-rule="evenodd">
        <g id="Time" transform="translate(-270.000000, -7054.000000)" fill="#21272D" fill-rule="nonzero">
            <g id="Group-10" transform="translate(190.000000, 7009.000000)">
                <g id="Shape-2" transform="translate(80.000000, 45.000000)">
                    <path d="M45,-6.39488462e-14 C20.182716,-6.39488462e-14 0,20.1827 0,45 C0,69.8173 20.182716,90 45,90 C69.817284,90 90,69.8173 90,45 C90,20.1827 69.817284,-6.39488462e-14 45,-6.39488462e-14 Z M45,6 C66.574644,6 84,23.42534 84,45 C84,66.5746 66.574644,84 45,84 C23.425356,84 6,66.5746 6,45 C6,23.42534 23.425356,6 45,6 Z M27.65625,24.96875 C26.5022418,25.0924694 25.5230965,25.8706718 25.1420678,26.9669649 C24.7610391,28.063258 25.0464787,29.2809808 25.875,30.09375 L40.75,45 L25.875,59.875 C25.0385354,60.6163417 24.6834979,61.7611903 24.953723,62.8457358 C25.223948,63.9302812 26.0746339,64.7747121 27.1611441,65.0369259 C28.2476543,65.2991397 29.3898516,64.9356629 30.125,64.09375 L45,49.21875 L59.875,64.09375 C60.6101484,64.9356629 61.7523457,65.2991397 62.8388559,65.0369259 C63.9253661,64.7747121 64.776052,63.9302812 65.046277,62.8457358 C65.3165021,61.7611903 64.9614646,60.6163417 64.125,59.875 L49.25,45 L64.125,30.09375 C65.0479328,29.1938082 65.29286,27.8049093 64.7334286,26.643558 C64.1739972,25.4822068 62.9352574,24.8080011 61.65625,24.96875 C60.9763804,25.0583937 60.3477354,25.3782306 59.875,25.875 L45,40.75 L30.125,25.875 C29.4853645,25.209144 28.5747736,24.8748764 27.65625,24.96875 Z" id="Shape"></path>
                </g>
            </g>
        </g>
    </g>
</svg>