<?xml version="1.0" encoding="UTF-8"?>
<svg width="100px" height="100px" viewBox="0 0 100 100" version="1.1" xmlns="http://www.w3.org/2000/svg" xmlns:xlink="http://www.w3.org/1999/xlink">
    <!-- Generator: Sketch 52.5 (67469) - http://www.bohemiancoding.com/sketch -->
    <title>Group 4</title>
    <desc>Created with Sketch.</desc>
    <g id="Page-1" stroke="none" stroke-width="1" fill="none" fill-rule="evenodd">
        <g id="Time" transform="translate(-265.000000, -6815.000000)" fill="#21272D" fill-rule="nonzero">
            <g id="Group-9" transform="translate(190.000000, 6775.000000)">
                <g id="Group-4" transform="translate(75.000000, 40.000000)">
                    <path d="M66.6666667,33.3333333 C66.6666667,14.9533333 51.7133333,1.42108547e-13 33.3333333,1.42108547e-13 C14.9533333,1.42108547e-13 1.42108547e-13,14.9533333 1.42108547e-13,33.3333333 C1.42108547e-13,51.7133333 14.9533333,66.6666667 33.3333333,66.6666667 C33.3333333,85.0466667 48.2866667,100 66.6666667,100 C85.0466667,100 100,85.0466667 100,66.6666667 C100,48.2866667 85.0466667,33.3333333 66.6666667,33.3333333 Z M33.3333333,61.1111111 C18.0166667,61.1111111 5.55555556,48.65 5.55555556,33.3333333 C5.55555556,18.0166667 18.0166667,5.55555556 33.3333333,5.55555556 C48.65,5.55555556 61.1111111,18.0166667 61.1111111,33.3333333 C61.1111111,33.4922222 61.1011111,33.6488889 61.0988889,33.8077778 C56.4677778,34.59 52.1588889,36.3288889 48.3833333,38.8155556 L36.1111111,31.73 L36.1111111,8.17 L30.5555556,8.17 L30.5555556,34.9377778 L43.71,42.5333333 C38.6022222,47.3944444 35.0311111,53.8522222 33.8066667,61.1 C33.6488889,61.1011111 33.4922222,61.1111111 33.3333333,61.1111111 Z M66.6666667,94.4444444 C51.35,94.4444444 38.8888889,81.9833333 38.8888889,66.6666667 C38.8888889,51.35 51.35,38.8888889 66.6666667,38.8888889 C81.9833333,38.8888889 94.4444444,51.35 94.4444444,66.6666667 C94.4444444,81.9833333 81.9833333,94.4444444 66.6666667,94.4444444 Z" id="Shape"></path>
                    <path d="M69.4444444,63.2533333 L69.4444444,53.8222222 C70.7255556,54.7766667 71.5688889,56.29 71.5688889,58.0066667 L77.1244444,58.0066667 C77.1244444,53.14 73.8811111,49.02 69.4444444,47.6822222 L69.4444444,41.3388889 L63.8888889,41.3388889 L63.8888889,47.5144444 C59.1211111,48.6288889 55.5555556,52.9055556 55.5555556,58.0066667 C55.5555556,63.1077778 59.1211111,67.3833333 63.8888889,68.4977778 L63.8888889,80.2177778 C61.8577778,79.1955556 60.4577778,77.0966667 60.4577778,74.6733333 L54.9022222,74.6733333 C54.9022222,80.2022222 58.7411111,84.8388889 63.8888889,86.0922222 L63.8888889,91.6666667 L69.4444444,91.6666667 L69.4444444,86.0922222 C74.5922222,84.8388889 78.4311111,80.2011111 78.4311111,74.6733333 C78.4311111,69.1433333 74.5922222,64.5066667 69.4444444,63.2533333 Z M63.8888889,62.5966667 C62.2455556,61.7144444 61.1111111,60 61.1111111,58.0066667 C61.1111111,56.0133333 62.2455556,54.2988889 63.8888889,53.4166667 L63.8888889,62.5966667 Z M69.4444444,80.2177778 L69.4444444,69.1277778 C71.4755556,70.15 72.8755556,72.2488889 72.8755556,74.6733333 C72.8755556,77.0977778 71.4755556,79.1955556 69.4444444,80.2177778 Z" id="Shape"></path>
                </g>
            </g>
        </g>
    </g>
</svg>