<?xml version="1.0" encoding="UTF-8"?>
<svg width="119px" height="100px" viewBox="0 0 119 100" version="1.1" xmlns="http://www.w3.org/2000/svg" xmlns:xlink="http://www.w3.org/1999/xlink">
    <!-- Generator: Sketch 52.5 (67469) - http://www.bohemiancoding.com/sketch -->
    <title>Group 2</title>
    <desc>Created with Sketch.</desc>
    <g id="Page-1" stroke="none" stroke-width="1" fill="none" fill-rule="evenodd">
        <g id="Time" transform="translate(-252.000000, -6344.000000)" fill="#21272D">
            <g id="Group-7" transform="translate(190.000000, 6307.000000)">
                <g id="Group-2" transform="translate(62.000000, 37.000000)">
                    <path d="M13.7373093,22.0383379 L21.9796949,22.0383379 L21.9796949,13.7739612 C21.9796949,13.0136385 22.5951264,12.3965651 23.3534258,12.3965651 C24.1089778,12.3965651 24.7271568,13.0136385 24.7271568,13.7739612 L24.7271568,22.0383379 L32.9695423,22.0383379 C33.7250944,22.0383379 34.3432733,22.6554114 34.3432733,23.415734 C34.3432733,24.1733019 33.7250944,24.7931302 32.9695423,24.7931302 L24.7271568,24.7931302 L24.7271568,33.0575069 C24.7271568,33.8150748 24.1089778,34.434903 23.3534258,34.434903 C22.5951264,34.434903 21.9796949,33.8150748 21.9796949,33.0575069 L21.9796949,24.7931302 L13.7373093,24.7931302 C12.9790098,24.7931302 12.3635784,24.1733019 12.3635784,23.415734 C12.3635784,22.6554114 12.9790098,22.0383379 13.7373093,22.0383379 M23.3534258,46.8314681 C28.8016427,46.8314681 33.8130131,44.936171 37.7885904,41.7846887 L61.2491673,65.3078597 C62.3234249,66.3849834 64.0598208,66.3849834 65.1340784,65.3078597 C66.2083359,64.2307359 66.2083359,62.4869524 65.1340784,61.4098286 L41.6735015,37.8894125 C44.8138504,33.9032281 46.7068516,28.8784871 46.7068516,23.415734 C46.7068516,10.5040228 36.2280321,0 23.3534258,0 C10.4760721,0 0,10.5040228 0,23.415734 C0,36.3274453 10.4760721,46.8314681 23.3534258,46.8314681" id="Fill-115" transform="translate(32.969886, 33.057851) scale(-1, 1) translate(-32.969886, -33.057851) "></path>
                    <path d="M73.0146206,61.4323045 L89.8430854,61.4323045 C90.5042036,61.4323045 91.0451186,61.9722437 91.0451186,62.637526 C91.0451186,63.3003978 90.5042036,63.8427475 89.8430854,63.8427475 L73.0146206,63.8427475 C72.3510983,63.8427475 71.8125874,63.3003978 71.8125874,62.637526 C71.8125874,61.9722437 72.3510983,61.4323045 73.0146206,61.4323045 M81.428853,83.1262916 C86.2201573,83.1262916 90.624407,81.4510337 94.1127073,78.6693825 L114.583333,99.2907225 C115.518514,100.233206 117.037884,100.238027 117.982682,99.2955434 C118.925077,98.3578811 118.927481,96.8320706 117.992299,95.887177 L97.5024409,75.2465534 C100.22144,71.7658737 101.863417,67.3933301 101.863417,62.637526 C101.863417,51.3397796 92.6967122,42.1487603 81.428853,42.1487603 C70.1609938,42.1487603 60.9942887,51.3397796 60.9942887,62.637526 C60.9942887,73.9352724 70.1609938,83.1262916 81.428853,83.1262916" id="Fill-117"></path>
                </g>
            </g>
        </g>
    </g>
</svg>