<?xml version="1.0" encoding="UTF-8"?>
<svg width="100px" height="100px" viewBox="0 0 100 100" version="1.1" xmlns="http://www.w3.org/2000/svg" xmlns:xlink="http://www.w3.org/1999/xlink">
    <!-- Generator: Sketch 53.2 (72643) - https://sketchapp.com -->
    <title>Group 187</title>
    <desc>Created with Sketch.</desc>
    <g id="Page-1" stroke="none" stroke-width="1" fill="none" fill-rule="evenodd">
        <g id="Onboarding" transform="translate(-114.000000, -7133.000000)" fill="#000000">
            <g id="Group-187" transform="translate(114.000000, 7133.000000)">
                <path d="M35.0166667,43.1395833 L35.0166667,43.1395833 C34.0880952,43.9520833 32.5738095,43.9520833 31.65,43.1395833 L24.5071429,36.8854167 C23.5738095,36.0729167 23.5738095,34.7520833 24.502381,33.9354167 C25.4309524,33.1229167 26.9452381,33.1270833 27.8738095,33.9395833 L35.0166667,40.19375 C35.9452381,41.00625 35.9404762,42.33125 35.0166667,43.1395833" id="Fill-2984"></path>
                <path d="M83.3333333,58.3333333 L73.8095238,58.3333333 C72.4952381,58.3333333 71.4285714,57.4 71.4285714,56.25 C71.4285714,55.1 72.4952381,54.1666667 73.8095238,54.1666667 L83.3333333,54.1666667 C84.647619,54.1666667 85.7142857,55.1 85.7142857,56.25 C85.7142857,57.4 84.647619,58.3333333 83.3333333,58.3333333 L83.3333333,58.3333333 Z M75.4904762,78.5541667 C74.5619048,79.3708333 73.0571429,79.3708333 72.1285714,78.5541667 L64.9857143,72.3083333 C64.052381,71.4916667 64.052381,70.175 64.9857143,69.3583333 C65.9142857,68.5458333 67.4190476,68.5458333 68.347619,69.3583333 L75.4904762,75.6083333 C76.4238095,76.425 76.4238095,77.7416667 75.4904762,78.5541667 L75.4904762,78.5541667 Z M64.9857143,40.1916667 L72.1285714,33.9416667 C73.0571429,33.1291667 74.5666667,33.1291667 75.4952381,33.9416667 C76.4238095,34.7583333 76.4238095,36.075 75.4952381,36.8916667 L68.347619,43.1416667 C67.4190476,43.9541667 65.9142857,43.9541667 64.9857143,43.1416667 C64.052381,42.325 64.052381,41.0083333 64.9857143,40.1916667 L64.9857143,40.1916667 Z M52.3809524,85.4166667 C52.3809524,86.5666667 51.3142857,87.5 50,87.5 C48.6857143,87.5 47.6190476,86.5666667 47.6190476,85.4166667 L47.6190476,77.0833333 C47.6190476,75.9333333 48.6857143,75 50,75 C51.3142857,75 52.3809524,75.9333333 52.3809524,77.0833333 L52.3809524,85.4166667 Z M35.0142857,72.3083333 L27.8714286,78.5583333 C26.9428571,79.3708333 25.4380952,79.3708333 24.5095238,78.5583333 C23.5761905,77.7416667 23.5761905,76.425 24.5095238,75.6083333 L31.652381,69.3583333 C32.5809524,68.5458333 34.0857143,68.5458333 35.0142857,69.3583333 C35.947619,70.175 35.947619,71.4916667 35.0142857,72.3083333 L35.0142857,72.3083333 Z M85.8095238,25.7833333 L91.6666667,20.6541667 L93.552381,22.3083333 C94.4857143,23.1208333 95.9904762,23.1208333 96.9190476,22.3083333 C97.852381,21.4875 97.852381,20.175 96.9190476,19.3583333 L89.7761905,13.1083333 C88.847619,12.2958333 87.3428571,12.2958333 86.4142857,13.1083333 C85.4809524,13.925 85.4809524,15.2416667 86.4142857,16.0583333 L88.3,17.7083333 L82.3285714,22.9333333 C74.1714286,16.8708333 63.7714286,13.0791667 52.3809524,12.6083333 L52.3809524,4.16666667 L54.7619048,4.16666667 C56.0761905,4.16666667 57.1428571,3.23333333 57.1428571,2.08333333 C57.1428571,0.933333333 56.0761905,0 54.7619048,0 L45.2380952,0 C43.9238095,0 42.8571429,0.933333333 42.8571429,2.08333333 C42.8571429,3.23333333 43.9238095,4.16666667 45.2380952,4.16666667 L47.6190476,4.16666667 L47.6190476,54.1666667 L2.38095238,54.1666667 C1.06666667,54.1666667 0,55.1 0,56.25 C0,80.375 22.4285714,100 50,100 C77.5714286,100 100,80.375 100,56.25 C100,44.4125 94.5714286,33.6666667 85.8095238,25.7833333 L85.8095238,25.7833333 Z" id="Fill-2985"></path>
            </g>
        </g>
    </g>
</svg>