<?xml version="1.0" encoding="UTF-8"?>
<svg width="100px" height="97px" viewBox="0 0 100 97" version="1.1" xmlns="http://www.w3.org/2000/svg" xmlns:xlink="http://www.w3.org/1999/xlink">
    <!-- Generator: Sketch 53.2 (72643) - https://sketchapp.com -->
    <title>Group 558</title>
    <desc>Created with Sketch.</desc>
    <g id="Page-1" stroke="none" stroke-width="1" fill="none" fill-rule="evenodd">
        <g id="Onboarding" transform="translate(-114.000000, -6203.000000)" fill="#000000">
            <g id="Group-558" transform="translate(114.000000, 6200.000000)">
                <path d="M46.2870833,49.6524 C42.89125,49.6524 40.1245833,52.3044 40.1245833,55.5684 C40.1245833,58.8284 42.89125,61.4804 46.2870833,61.4804 C49.6829167,61.4804 52.4454167,58.8284 52.4454167,55.5684 C52.4454167,52.3044 49.6829167,49.6524 46.2870833,49.6524" id="Fill-3828"></path>
                <path d="M80.2529167,34.086 C78.3570833,34.086 76.81125,32.602 76.81125,30.782 C76.81125,28.962 78.3570833,27.482 80.2529167,27.482 C82.1529167,27.482 83.6945833,28.962 83.6945833,30.782 C83.6945833,32.602 82.1529167,34.086 80.2529167,34.086 M66.6654167,34.086 C64.7695833,34.086 63.22375,32.602 63.22375,30.782 C63.22375,28.962 64.7695833,27.482 66.6654167,27.482 C68.5654167,27.482 70.11125,28.962 70.11125,30.782 C70.11125,32.602 68.5654167,34.086 66.6654167,34.086 M53.0820833,34.002 C51.1820833,34.002 49.63625,32.514 49.63625,30.694 C49.63625,28.874 51.1820833,27.394 53.0820833,27.394 C54.9779167,27.394 56.52375,28.874 56.52375,30.694 C56.52375,32.514 54.9779167,34.002 53.0820833,34.002 M59.21125,13.854 C47.5945833,7.754 33.3320833,16.026 33.3320833,29.042 C33.3320833,38.374 40.9695833,46.002 50.4529167,46.25 C56.3529167,53.542 67.0654167,54.902 74.6695833,49.442 C88.4945833,51.626 99.99875,41.886 99.99875,26.866 C99.99875,4.378 71.7445833,-4.502 59.21125,13.854" id="Fill-3829"></path>
                <path d="M36.7758333,61.3944 C34.8758333,61.3944 33.3341667,62.8744 33.3341667,64.6944 C33.3341667,66.5144 34.8758333,67.9984 36.7758333,67.9984 C38.6716667,67.9984 40.2175,66.5144 40.2175,64.6944 C40.2175,62.8744 38.6716667,61.3944 36.7758333,61.3944" id="Fill-3830"></path>
                <path d="M22.9166667,60 L2.08333333,60 C0.933333333,60 0,60.896 0,62 L0,72 C0,76.332 1.4,78.916 4.16666667,79.728 L4.16666667,98 C4.16666667,99.104 5.1,100 6.25,100 L18.75,100 C19.9,100 20.8333333,99.104 20.8333333,98 L20.8333333,79.728 C23.5958333,78.916 24.9958333,76.328 25,72 L25,62 C25,60.896 24.0666667,60 22.9166667,60" id="Fill-3831"></path>
                <path d="M12.5,56 C17.0958333,56 20.8333333,52.412 20.8333333,48 C20.8333333,43.588 17.0958333,40 12.5,40 C7.90416667,40 4.16666667,43.588 4.16666667,48 C4.16666667,52.412 7.90416667,56 12.5,56" id="Fill-3832"></path>
            </g>
        </g>
    </g>
</svg>