<?xml version="1.0" encoding="UTF-8"?>
<svg width="96px" height="97px" viewBox="0 0 96 97" version="1.1" xmlns="http://www.w3.org/2000/svg" xmlns:xlink="http://www.w3.org/1999/xlink">
    <!-- Generator: Sketch 53.2 (72643) - https://sketchapp.com -->
    <title>Group 516</title>
    <desc>Created with Sketch.</desc>
    <g id="Page-1" stroke="none" stroke-width="1" fill="none" fill-rule="evenodd">
        <g id="Onboarding" transform="translate(-118.000000, -6441.000000)" fill="#000000">
            <g id="Group-516" transform="translate(114.000000, 6439.000000)">
                <path d="M59.9864,69.5652174 L43.9864,69.5652174 C32.9584,69.5652174 23.9864,59.8130435 23.9864,47.826087 C23.9864,46.626087 24.8824,45.6521739 25.9864,45.6521739 C27.0904,45.6521739 27.9864,46.626087 27.9864,47.826087 C27.9864,57.4130435 35.1624,65.2173913 43.9864,65.2173913 L59.9864,65.2173913 C68.8104,65.2173913 75.9864,57.4130435 75.9864,47.826087 C75.9864,46.626087 76.8824,45.6521739 77.9864,45.6521739 C79.0904,45.6521739 79.9864,46.626087 79.9864,47.826087 C79.9864,59.8130435 71.0144,69.5652174 59.9864,69.5652174 M37.9864,26.0869565 C43.4984,26.0869565 47.9864,30.9608696 47.9864,36.9565217 C47.9864,38.1565217 47.0904,39.1304348 45.9864,39.1304348 C44.8824,39.1304348 43.9864,38.1565217 43.9864,36.9565217 C43.9864,33.3608696 41.2944,30.4347826 37.9864,30.4347826 C34.6784,30.4347826 31.9864,33.3608696 31.9864,36.9565217 C31.9864,38.1565217 31.0904,39.1304348 29.9864,39.1304348 C28.8824,39.1304348 27.9864,38.1565217 27.9864,36.9565217 C27.9864,30.9608696 32.4744,26.0869565 37.9864,26.0869565 M65.9864,26.0869565 C71.4984,26.0869565 75.9864,30.9608696 75.9864,36.9565217 C75.9864,38.1565217 75.0904,39.1304348 73.9864,39.1304348 C72.8824,39.1304348 71.9864,38.1565217 71.9864,36.9565217 C71.9864,33.3608696 69.2944,30.4347826 65.9864,30.4347826 C62.6784,30.4347826 59.9864,33.3608696 59.9864,36.9565217 C59.9864,38.1565217 59.0904,39.1304348 57.9864,39.1304348 C56.8824,39.1304348 55.9864,38.1565217 55.9864,36.9565217 C55.9864,30.9608696 60.4744,26.0869565 65.9864,26.0869565 M51.9864,2.17391304 C25.5184,2.17391304 3.9864,21.4521739 3.9864,45.1434783 C3.9864,56.3304348 8.6944,66.8173913 17.2864,74.8478261 L7.6504,95.7608696 C6.7904,97.6173913 8.5984,99.573913 10.2784,98.7043478 L36.0264,85.6782609 C41.1424,87.2913043 46.5024,88.1130435 51.9864,88.1130435 C78.4544,88.1130435 99.9864,68.8347826 99.9864,45.1434783 C99.9864,21.4521739 78.4544,2.17391304 51.9864,2.17391304" id="Fill-1435"></path>
            </g>
        </g>
    </g>
</svg>