<?xml version="1.0" encoding="UTF-8"?>
<svg width="110px" height="71px" viewBox="0 0 110 71" version="1.1" xmlns="http://www.w3.org/2000/svg" xmlns:xlink="http://www.w3.org/1999/xlink">
    <!-- Generator: Sketch 53.2 (72643) - https://sketchapp.com -->
    <title>Group 1405</title>
    <desc>Created with Sketch.</desc>
    <g id="Page-1" stroke="none" stroke-width="1" fill="none" fill-rule="evenodd">
        <g id="Onboarding" transform="translate(-104.000000, -5987.000000)" fill="#000000">
            <g id="Group-1405" transform="translate(104.000000, 5987.000000)">
                <path d="M110,34.5441103 C110,31.9087305 108.477803,29.7698715 106.594638,29.7698715 C104.711473,29.7698715 103.189277,31.9087305 103.189277,34.5441103 L103.189277,50.4614224 L85.3077231,21.7396019 C84.0851983,19.7964867 81.9909009,19.5768718 80.5708651,21.2335326 L62.6722846,42.1446985 L35.4938009,0.112777688 C34.2440332,-1.85420869 1.40607685,22.5370291 0.00306787588,24.2891748 C-0.280029719,24.6428257 19.1208394,69.2078656 20.3802776,70.8311896 C20.7242032,71.2744846 27.0338164,69.2078656 24.637248,63.089284 C20.1989442,51.7580302 6.44897562,26.8736498 7.36008431,26.3445387 C16.0764965,21.2826286 31.6932947,7.64714813 32.5348346,8.97806167 L59.7777273,51.9462107 C60.9968467,53.8702289 63.0877387,54.0850696 64.5043692,52.433183 L82.3927336,31.5363399 L98.8338193,58.3150452 L82.7537019,58.3150452 C80.870537,58.3150452 79.3483403,60.4586784 79.3483403,63.089284 C79.3483403,65.7246638 80.870537,67.8635227 82.7537019,67.8635227 L106.594638,67.8635227 C108.44375,67.8635227 109.935298,65.6578244 109.979568,63.2372854 C109.979568,63.1847687 110,63.1418006 110,63.089284 L110,34.5441103 Z" id="Fill-1745"></path>
            </g>
        </g>
    </g>
</svg>