<?xml version="1.0" encoding="UTF-8"?>
<svg width="96px" height="100px" viewBox="0 0 96 100" version="1.1" xmlns="http://www.w3.org/2000/svg" xmlns:xlink="http://www.w3.org/1999/xlink">
    <!-- Generator: Sketch 53.2 (72643) - https://sketchapp.com -->
    <title>Group 289</title>
    <desc>Created with Sketch.</desc>
    <g id="Page-1" stroke="none" stroke-width="1" fill="none" fill-rule="evenodd">
        <g id="Onboarding" transform="translate(-114.000000, -6674.000000)" fill="#000000">
            <g id="Group-289" transform="translate(114.000000, 6674.000000)">
                <path d="M35.0508,79.4616667 C33.4228,74.4616667 29.8108,70.4116667 25.2028,68.2991667 C28.0988,66.0158333 29.9988,62.4325 29.9988,58.3658333 C29.9988,51.47 24.6188,45.8658333 17.9988,45.8658333 C11.3828,45.8658333 5.9988,51.47 5.9988,58.3658333 C5.9988,62.4283333 7.8988,66.0075 10.7908,68.2908333 C4.4508,71.195 -0.0012,77.7825 -0.0012,85.4491667 C-0.0012,86.5991667 0.8948,87.5325 1.9988,87.4991667 L28.4308,87.4991667 C30.0068,84.3283333 32.2828,81.57 35.0508,79.4616667" id="Fill-3130"></path>
                <path d="M60.9492,79.4616667 C62.5772,74.4616667 66.1892,70.4116667 70.7972,68.2991667 C67.9012,66.0158333 66.0012,62.4325 66.0012,58.3658333 C66.0012,51.47 71.3812,45.8658333 78.0012,45.8658333 C84.6172,45.8658333 90.0012,51.47 90.0012,58.3658333 C90.0012,62.4283333 88.1012,66.0075 85.2092,68.2908333 C91.5492,71.195 96.0012,77.7825 96.0012,85.4491667 C96.0012,86.5991667 95.1052,87.5325 94.0012,87.4991667 L67.5692,87.4991667 C65.9932,84.3283333 63.7172,81.57 60.9492,79.4616667" id="Fill-3131"></path>
                <path d="M64,100 C65.104,100 66,99.1 66,97.9458333 C66,90.2833333 61.552,83.6958333 55.212,80.7916667 C58.1,78.5083333 60,74.925 60,70.8625 C60,63.9708333 54.616,58.3625 48,58.3625 C41.384,58.3625 36,63.9708333 36,70.8625 C36,74.925 37.9,78.5083333 40.788,80.7916667 C34.448,83.6958333 30,90.2833333 30,97.9458333 C30,99.1 30.896,100 32,100 L64,100 Z" id="Fill-3132"></path>
                <path d="M61.8748,12.5 L33.9988,12.5 C32.8948,12.5 31.9988,11.5416667 31.9988,10.3875 C31.9988,9.2375 32.8948,8.30416667 33.9988,8.30416667 L61.8748,8.30416667 C62.9788,8.30416667 63.8748,9.2375 63.8748,10.3875 C63.8748,11.5416667 62.9788,12.5 61.8748,12.5 M61.8748,20.8333333 L33.9988,20.8333333 C32.8948,20.8333333 31.9988,19.875 31.9988,18.7208333 C31.9988,17.5708333 32.8948,16.6375 33.9988,16.6375 L61.8748,16.6375 C62.9788,16.6375 63.8748,17.5708333 63.8748,18.7208333 C63.8748,19.875 62.9788,20.8333333 61.8748,20.8333333 M61.8748,29.1666667 L33.9988,29.1666667 C32.8948,29.1666667 31.9988,28.2083333 31.9988,27.0541667 C31.9988,25.9041667 32.8948,24.9708333 33.9988,24.9708333 L61.8748,24.9708333 C62.9788,24.9708333 63.8748,25.9041667 63.8748,27.0541667 C63.8748,28.2083333 62.9788,29.1666667 61.8748,29.1666667 M69.9988,0 L25.9988,0 C22.6908,0 19.9988,2.775 19.9988,6.22083333 L19.9988,35.3875 C19.9988,38.8333333 22.6908,41.6375 25.9988,41.6375 L29.1708,41.6375 L40.5868,53.5291667 C40.9708,53.925 41.4788,54.1375 41.9988,54.1375 C43.1068,54.1375 43.9988,53.2083333 43.9988,52.0541667 L43.9988,41.6375 L69.9988,41.6375 C73.3068,41.6375 75.9988,38.8333333 75.9988,35.3875 L75.9988,6.22083333 C75.9988,2.775 73.3068,0 69.9988,0" id="Fill-3133"></path>
            </g>
        </g>
    </g>
</svg>