<?xml version="1.0" encoding="UTF-8"?>
<svg width="100px" height="100px" viewBox="0 0 100 100" version="1.1" xmlns="http://www.w3.org/2000/svg" xmlns:xlink="http://www.w3.org/1999/xlink">
    <!-- Generator: Sketch 53.2 (72643) - https://sketchapp.com -->
    <title>Group 1232</title>
    <desc>Created with Sketch.</desc>
    <g id="Page-1" stroke="none" stroke-width="1" fill="none" fill-rule="evenodd">
        <g id="Onboarding" transform="translate(-114.000000, -6903.000000)" fill="#000000">
            <g id="Group-1232" transform="translate(114.000000, 6903.000000)">
                <polygon id="Fill-3705" points="75.528059 61.1111111 55.5555556 81.0836145 68.9163855 94.4444444 88.8888889 74.471941"></polygon>
                <path d="M99.3906555,61.0254904 L88.9745096,50.6093445 C88.1620502,49.7968852 86.8412829,49.7968852 86.0288236,50.6093445 L79.1666667,57.4756679 L92.5284986,70.8333333 L99.3906555,63.9711764 C100.203115,63.1628835 100.203115,61.8379498 99.3906555,61.0254904" id="Fill-3706"></path>
                <path d="M66.6666667,95.9609465 L54.0299048,83.3333333 L50.0833536,97.2985991 C49.8840766,98.0258665 50.0357004,98.8223975 50.6075388,99.3938218 C51.175045,99.9609173 51.9721531,100.112431 52.6999474,99.9219565 L66.6666667,95.9609465 Z" id="Fill-3707"></path>
                <path d="M60.4166667,8.33333333 L49.7916667,8.33333333 C48.825,3.58333333 44.6125,0 39.5833333,0 C34.5541667,0 30.3416667,3.58333333 29.375,8.33333333 L18.75,8.33333333 C17.6,8.33333333 16.6666667,9.26666667 16.6666667,10.4166667 L16.6666667,22.9166667 C16.6666667,24.0666667 17.6,25 18.75,25 L60.4166667,25 C61.5666667,25 62.5,24.0666667 62.5,22.9166667 L62.5,10.4166667 C62.5,9.26666667 61.5666667,8.33333333 60.4166667,8.33333333" id="Fill-3708"></path>
                <path d="M56.25,41.6666667 L22.9166667,41.6666667 C21.7666667,41.6666667 20.8333333,40.7333333 20.8333333,39.5833333 C20.8333333,38.4333333 21.7666667,37.5 22.9166667,37.5 L56.25,37.5 C57.4,37.5 58.3333333,38.4333333 58.3333333,39.5833333 C58.3333333,40.7333333 57.4,41.6666667 56.25,41.6666667" id="Fill-3709"></path>
                <path d="M56.25,50 L22.9166667,50 C21.7666667,50 20.8333333,49.0666667 20.8333333,47.9166667 C20.8333333,46.7666667 21.7666667,45.8333333 22.9166667,45.8333333 L56.25,45.8333333 C57.4,45.8333333 58.3333333,46.7666667 58.3333333,47.9166667 C58.3333333,49.0666667 57.4,50 56.25,50" id="Fill-3710"></path>
                <path d="M56.25,58.3333333 L22.9166667,58.3333333 C21.7666667,58.3333333 20.8333333,57.4 20.8333333,56.25 C20.8333333,55.1 21.7666667,54.1666667 22.9166667,54.1666667 L56.25,54.1666667 C57.4,54.1666667 58.3333333,55.1 58.3333333,56.25 C58.3333333,57.4 57.4,58.3333333 56.25,58.3333333" id="Fill-3711"></path>
                <path d="M42.2979798,66.6666667 L22.979798,66.6666667 C21.7949495,66.6666667 20.8333333,65.7333333 20.8333333,64.5833333 C20.8333333,63.4333333 21.7949495,62.5 22.979798,62.5 L42.2979798,62.5 C43.4828283,62.5 44.4444444,63.4333333 44.4444444,64.5833333 C44.4444444,65.7333333 43.4828283,66.6666667 42.2979798,66.6666667" id="Fill-3712"></path>
                <path d="M70.8333333,18.7140882 L70.8333333,59.7222222 L79.1666667,51.4176183 L79.1666667,10.4094843 C79.1666667,9.26344897 78.2333333,8.33333333 77.0833333,8.33333333 L66.6666667,8.33333333 L66.6666667,16.6379372 L68.75,16.6379372 C69.9,16.6379372 70.8333333,17.5680529 70.8333333,18.7140882" id="Fill-3713"></path>
                <path d="M45.9302269,96.2 L47.2222222,91.6666667 L10.3858147,91.6666667 C9.23922075,91.6666667 8.30865175,90.7333333 8.30865175,89.5833333 L8.30865175,18.75 C8.30865175,17.6 9.23922075,16.6666667 10.3858147,16.6666667 L12.4629776,16.6666667 L12.4629776,8.33333333 L2.07716294,8.33333333 C0.930568996,8.33333333 0,9.26666667 0,10.4166667 L0,97.9166667 C0,99.0666667 0.930568996,100 2.07716294,100 L46.0963999,100 C45.6726587,98.7916667 45.5688005,97.475 45.9302269,96.2" id="Fill-3714"></path>
            </g>
        </g>
    </g>
</svg>