<?xml version="1.0" encoding="UTF-8"?>
<svg width="40px" height="40px" viewBox="0 0 40 40" version="1.1" xmlns="http://www.w3.org/2000/svg" xmlns:xlink="http://www.w3.org/1999/xlink">
    <!-- Generator: Sketch 53.2 (72643) - https://sketchapp.com -->
    <title>KLMonogram-small</title>
    <desc>Created with Sketch.</desc>
    <g id="KLMonogram-small" stroke="none" stroke-width="1" fill="none" fill-rule="evenodd">
        <g id="Group" fill="#000000">
            <path d="M12.6027397,35.5428028 L12.6027397,38.5874625 C5.21878694,35.6463021 0,28.4326075 0,20 C0,8.954305 8.954305,0 20,0 C21.6013119,0 23.1586695,0.188190478 24.6511628,0.54366128 L24.6511628,3.42659435 C23.1717222,3.01226217 21.6117357,2.79069767 20,2.79069767 C10.4955648,2.79069767 2.79069767,10.4955648 2.79069767,20 C2.79069767,26.8564255 6.80036225,32.7763437 12.6027397,35.5428028 Z M15.890411,36.7155476 C17.2072838,37.0382035 18.5836608,37.2093023 20,37.2093023 C29.5044352,37.2093023 37.2093023,29.5044352 37.2093023,20 C37.2093023,13.3462176 33.4331483,7.57440332 27.9069767,4.71069361 L27.9069767,1.62381047 C35.0202422,4.68862395 40,11.7627696 40,20 C40,31.045695 31.045695,40 20,40 C18.5913802,40 17.2167726,39.8543759 15.890411,39.577361 L15.890411,36.7155476 Z" id="Combined-Shape" fill-rule="nonzero"></path>
            <path d="M6.67814703,13.0979648 C7.10922587,12.2237733 7.61963819,11.396939 8.19979607,10.6271996 L17.5850534,20.1354748 L17.4483474,20.2739726 L17.5850534,20.4124704 L8.43743353,29.6799933 C7.8413849,28.9291513 7.31318177,28.1204277 6.86228386,27.26343 L13.7613118,20.2739726 L6.67814703,13.0979648 Z M4.94681629,11.3439405 L4.38356164,10.773303 L6.3637854,8.76712329 L6.53218596,8.93773117 C5.94236145,9.69248433 5.41154418,10.4969517 4.94681629,11.3439405 Z M6.77415972,31.3650686 L6.3637854,31.7808219 L4.38356164,29.7746422 L5.14334071,29.0049043 C5.62460547,29.8372271 6.1705491,30.6263223 6.77415972,31.3650686 Z M33.8536959,26.9345929 C33.350216,27.949594 32.7396593,28.9004174 32.037094,29.7717594 L21.5329399,29.7717594 L21.5329399,26.9345929 L33.8536959,26.9345929 Z" id="Combined-Shape"></path>
            <g id="Group-2" transform="translate(15.890411, 1.643836)">
                <rect id="Rectangle" x="5.47945205" y="0" width="3.28767123" height="27.9452055"></rect>
                <rect id="Rectangle" x="0" y="8.21917808" width="3.28767123" height="27.9452055"></rect>
            </g>
        </g>
    </g>
</svg>